<mxfile host="app.diagrams.net" modified="2020-11-10T19:37:19.444Z" agent="5.0 (Macintosh)" etag="ZnOKIYrv81w9XuduxTRW" version="13.9.2" type="github">
  <diagram id="R2lEEEUBdFMjLlhIrx00" name="Page-1">
    <mxGraphModel dx="946" dy="578" grid="1" gridSize="10" guides="1" tooltips="1" connect="1" arrows="1" fold="1" page="1" pageScale="1" pageWidth="850" pageHeight="1100" math="0" shadow="0" extFonts="Permanent Marker^https://fonts.googleapis.com/css?family=Permanent+Marker">
      <root>
        <mxCell id="0" />
        <mxCell id="1" parent="0" />
        <mxCell id="nRz9gA-D5gIzsTfMlu9z-2" value="" style="rounded=0;whiteSpace=wrap;html=1;verticalAlign=middle;fillColor=#dae8fc;strokeColor=#6c8ebf;" parent="1" vertex="1">
          <mxGeometry x="80" y="201" width="200" height="30" as="geometry" />
        </mxCell>
        <mxCell id="nRz9gA-D5gIzsTfMlu9z-3" value="wombles" style="text;html=1;strokeColor=none;fillColor=none;align=center;verticalAlign=middle;whiteSpace=wrap;rounded=0;fontFamily=Tahoma;fontSize=14;fontStyle=1" parent="1" vertex="1">
          <mxGeometry x="160" y="204" width="40" height="20" as="geometry" />
        </mxCell>
        <mxCell id="nRz9gA-D5gIzsTfMlu9z-5" style="edgeStyle=orthogonalEdgeStyle;rounded=0;orthogonalLoop=1;jettySize=auto;html=1;exitX=0.5;exitY=1;exitDx=0;exitDy=0;fontFamily=Tahoma;fontSize=14;" parent="1" source="nRz9gA-D5gIzsTfMlu9z-2" target="nRz9gA-D5gIzsTfMlu9z-2" edge="1">
          <mxGeometry relative="1" as="geometry" />
        </mxCell>
        <mxCell id="nRz9gA-D5gIzsTfMlu9z-6" style="edgeStyle=orthogonalEdgeStyle;rounded=0;orthogonalLoop=1;jettySize=auto;html=1;exitX=0.5;exitY=1;exitDx=0;exitDy=0;fontFamily=Tahoma;fontSize=14;" parent="1" source="nRz9gA-D5gIzsTfMlu9z-2" target="nRz9gA-D5gIzsTfMlu9z-2" edge="1">
          <mxGeometry relative="1" as="geometry" />
        </mxCell>
        <mxCell id="nRz9gA-D5gIzsTfMlu9z-13" value="" style="rounded=0;whiteSpace=wrap;html=1;verticalAlign=bottom;" parent="1" vertex="1">
          <mxGeometry x="80" y="232" width="200" height="30" as="geometry" />
        </mxCell>
        <mxCell id="nRz9gA-D5gIzsTfMlu9z-14" value="&lt;b&gt;id&lt;/b&gt;" style="text;html=1;strokeColor=none;fillColor=none;align=left;verticalAlign=middle;whiteSpace=wrap;rounded=0;fontFamily=Tahoma;fontSize=14;fontStyle=0" parent="1" vertex="1">
          <mxGeometry x="105" y="235" width="110" height="20" as="geometry" />
        </mxCell>
        <mxCell id="nRz9gA-D5gIzsTfMlu9z-15" value="" style="rounded=0;whiteSpace=wrap;html=1;verticalAlign=bottom;" parent="1" vertex="1">
          <mxGeometry x="80" y="261" width="200" height="30" as="geometry" />
        </mxCell>
        <mxCell id="nRz9gA-D5gIzsTfMlu9z-16" value="name" style="text;html=1;strokeColor=none;fillColor=none;align=left;verticalAlign=middle;whiteSpace=wrap;rounded=0;fontFamily=Tahoma;fontSize=14;fontStyle=0" parent="1" vertex="1">
          <mxGeometry x="105" y="264" width="130" height="20" as="geometry" />
        </mxCell>
        <mxCell id="nRz9gA-D5gIzsTfMlu9z-19" style="edgeStyle=orthogonalEdgeStyle;rounded=0;orthogonalLoop=1;jettySize=auto;html=1;exitX=0.5;exitY=1;exitDx=0;exitDy=0;fontFamily=Tahoma;fontSize=14;" parent="1" edge="1">
          <mxGeometry relative="1" as="geometry">
            <mxPoint x="180" y="290" as="sourcePoint" />
            <mxPoint x="180" y="290" as="targetPoint" />
          </mxGeometry>
        </mxCell>
        <mxCell id="nRz9gA-D5gIzsTfMlu9z-20" style="edgeStyle=orthogonalEdgeStyle;rounded=0;orthogonalLoop=1;jettySize=auto;html=1;exitX=0.5;exitY=1;exitDx=0;exitDy=0;fontFamily=Tahoma;fontSize=14;" parent="1" edge="1">
          <mxGeometry relative="1" as="geometry">
            <mxPoint x="180" y="290" as="sourcePoint" />
            <mxPoint x="180" y="290" as="targetPoint" />
          </mxGeometry>
        </mxCell>
        <mxCell id="nRz9gA-D5gIzsTfMlu9z-21" value="" style="rounded=0;whiteSpace=wrap;html=1;verticalAlign=bottom;" parent="1" vertex="1">
          <mxGeometry x="80" y="291" width="200" height="30" as="geometry" />
        </mxCell>
        <mxCell id="nRz9gA-D5gIzsTfMlu9z-22" value="age" style="text;html=1;strokeColor=none;fillColor=none;align=left;verticalAlign=middle;whiteSpace=wrap;rounded=0;fontFamily=Tahoma;fontSize=14;fontStyle=0" parent="1" vertex="1">
          <mxGeometry x="105" y="294" width="110" height="20" as="geometry" />
        </mxCell>
        <mxCell id="nRz9gA-D5gIzsTfMlu9z-23" value="" style="rounded=0;whiteSpace=wrap;html=1;verticalAlign=bottom;" parent="1" vertex="1">
          <mxGeometry x="80" y="320" width="200" height="30" as="geometry" />
        </mxCell>
        <mxCell id="nRz9gA-D5gIzsTfMlu9z-24" value="characteristic_id" style="text;html=1;strokeColor=none;fillColor=none;align=left;verticalAlign=middle;whiteSpace=wrap;rounded=0;fontFamily=Tahoma;fontSize=14;fontStyle=0" parent="1" vertex="1">
          <mxGeometry x="105" y="323" width="130" height="20" as="geometry" />
        </mxCell>
        <mxCell id="nRz9gA-D5gIzsTfMlu9z-25" value="" style="rounded=0;whiteSpace=wrap;html=1;verticalAlign=middle;fillColor=#dae8fc;strokeColor=#6c8ebf;" parent="1" vertex="1">
          <mxGeometry x="441" y="201" width="200" height="30" as="geometry" />
        </mxCell>
        <mxCell id="nRz9gA-D5gIzsTfMlu9z-26" value="characteristics" style="text;html=1;strokeColor=none;fillColor=none;align=center;verticalAlign=middle;whiteSpace=wrap;rounded=0;fontFamily=Tahoma;fontSize=14;fontStyle=1" parent="1" vertex="1">
          <mxGeometry x="521" y="204" width="40" height="20" as="geometry" />
        </mxCell>
        <mxCell id="nRz9gA-D5gIzsTfMlu9z-27" style="edgeStyle=orthogonalEdgeStyle;rounded=0;orthogonalLoop=1;jettySize=auto;html=1;exitX=0.5;exitY=1;exitDx=0;exitDy=0;fontFamily=Tahoma;fontSize=14;" parent="1" source="nRz9gA-D5gIzsTfMlu9z-25" target="nRz9gA-D5gIzsTfMlu9z-25" edge="1">
          <mxGeometry relative="1" as="geometry" />
        </mxCell>
        <mxCell id="nRz9gA-D5gIzsTfMlu9z-28" style="edgeStyle=orthogonalEdgeStyle;rounded=0;orthogonalLoop=1;jettySize=auto;html=1;exitX=0.5;exitY=1;exitDx=0;exitDy=0;fontFamily=Tahoma;fontSize=14;" parent="1" source="nRz9gA-D5gIzsTfMlu9z-25" target="nRz9gA-D5gIzsTfMlu9z-25" edge="1">
          <mxGeometry relative="1" as="geometry" />
        </mxCell>
        <mxCell id="nRz9gA-D5gIzsTfMlu9z-29" value="" style="rounded=0;whiteSpace=wrap;html=1;verticalAlign=middle;" parent="1" vertex="1">
          <mxGeometry x="441" y="232" width="200" height="30" as="geometry" />
        </mxCell>
        <mxCell id="nRz9gA-D5gIzsTfMlu9z-30" value="&lt;b&gt;id&lt;/b&gt;" style="text;html=1;strokeColor=none;fillColor=none;align=left;verticalAlign=middle;whiteSpace=wrap;rounded=0;fontFamily=Tahoma;fontSize=14;fontStyle=0" parent="1" vertex="1">
          <mxGeometry x="466" y="235" width="110" height="20" as="geometry" />
        </mxCell>
        <mxCell id="nRz9gA-D5gIzsTfMlu9z-31" value="" style="rounded=0;whiteSpace=wrap;html=1;verticalAlign=middle;" parent="1" vertex="1">
          <mxGeometry x="441" y="261" width="200" height="30" as="geometry" />
        </mxCell>
        <mxCell id="nRz9gA-D5gIzsTfMlu9z-32" value="name" style="text;html=1;strokeColor=none;fillColor=none;align=left;verticalAlign=middle;whiteSpace=wrap;rounded=0;fontFamily=Tahoma;fontSize=14;fontStyle=0" parent="1" vertex="1">
          <mxGeometry x="466" y="264" width="130" height="20" as="geometry" />
        </mxCell>
        <mxCell id="nRz9gA-D5gIzsTfMlu9z-33" style="edgeStyle=orthogonalEdgeStyle;rounded=0;orthogonalLoop=1;jettySize=auto;html=1;exitX=0.5;exitY=1;exitDx=0;exitDy=0;fontFamily=Tahoma;fontSize=14;" parent="1" edge="1">
          <mxGeometry relative="1" as="geometry">
            <mxPoint x="541" y="290" as="sourcePoint" />
            <mxPoint x="541" y="290" as="targetPoint" />
          </mxGeometry>
        </mxCell>
        <mxCell id="nRz9gA-D5gIzsTfMlu9z-34" style="edgeStyle=orthogonalEdgeStyle;rounded=0;orthogonalLoop=1;jettySize=auto;html=1;exitX=0.5;exitY=1;exitDx=0;exitDy=0;fontFamily=Tahoma;fontSize=14;" parent="1" edge="1">
          <mxGeometry relative="1" as="geometry">
            <mxPoint x="541" y="290" as="sourcePoint" />
            <mxPoint x="541" y="290" as="targetPoint" />
          </mxGeometry>
        </mxCell>
        <mxCell id="nRz9gA-D5gIzsTfMlu9z-35" value="" style="rounded=0;whiteSpace=wrap;html=1;verticalAlign=middle;" parent="1" vertex="1">
          <mxGeometry x="441" y="291" width="200" height="30" as="geometry" />
        </mxCell>
        <mxCell id="nRz9gA-D5gIzsTfMlu9z-39" value="" style="rounded=0;whiteSpace=wrap;html=1;verticalAlign=middle;fillColor=#dae8fc;strokeColor=#6c8ebf;" parent="1" vertex="1">
          <mxGeometry x="441" y="361" width="200" height="30" as="geometry" />
        </mxCell>
        <mxCell id="nRz9gA-D5gIzsTfMlu9z-40" value="rubbish" style="text;html=1;strokeColor=none;fillColor=none;align=center;verticalAlign=middle;whiteSpace=wrap;rounded=0;fontFamily=Tahoma;fontSize=14;fontStyle=1" parent="1" vertex="1">
          <mxGeometry x="521" y="364" width="40" height="20" as="geometry" />
        </mxCell>
        <mxCell id="nRz9gA-D5gIzsTfMlu9z-41" style="edgeStyle=orthogonalEdgeStyle;rounded=0;orthogonalLoop=1;jettySize=auto;html=1;exitX=0.5;exitY=1;exitDx=0;exitDy=0;fontFamily=Tahoma;fontSize=14;" parent="1" source="nRz9gA-D5gIzsTfMlu9z-39" target="nRz9gA-D5gIzsTfMlu9z-39" edge="1">
          <mxGeometry relative="1" as="geometry" />
        </mxCell>
        <mxCell id="nRz9gA-D5gIzsTfMlu9z-42" style="edgeStyle=orthogonalEdgeStyle;rounded=0;orthogonalLoop=1;jettySize=auto;html=1;exitX=0.5;exitY=1;exitDx=0;exitDy=0;fontFamily=Tahoma;fontSize=14;" parent="1" source="nRz9gA-D5gIzsTfMlu9z-39" target="nRz9gA-D5gIzsTfMlu9z-39" edge="1">
          <mxGeometry relative="1" as="geometry" />
        </mxCell>
        <mxCell id="nRz9gA-D5gIzsTfMlu9z-43" value="" style="rounded=0;whiteSpace=wrap;html=1;verticalAlign=middle;" parent="1" vertex="1">
          <mxGeometry x="441" y="392" width="200" height="30" as="geometry" />
        </mxCell>
        <mxCell id="nRz9gA-D5gIzsTfMlu9z-44" value="&lt;b&gt;id&lt;/b&gt;" style="text;html=1;strokeColor=none;fillColor=none;align=left;verticalAlign=middle;whiteSpace=wrap;rounded=0;fontFamily=Tahoma;fontSize=14;fontStyle=0" parent="1" vertex="1">
          <mxGeometry x="466" y="395" width="110" height="20" as="geometry" />
        </mxCell>
        <mxCell id="nRz9gA-D5gIzsTfMlu9z-45" value="" style="rounded=0;whiteSpace=wrap;html=1;verticalAlign=middle;" parent="1" vertex="1">
          <mxGeometry x="441" y="421" width="200" height="30" as="geometry" />
        </mxCell>
        <mxCell id="nRz9gA-D5gIzsTfMlu9z-47" style="edgeStyle=orthogonalEdgeStyle;rounded=0;orthogonalLoop=1;jettySize=auto;html=1;exitX=0.5;exitY=1;exitDx=0;exitDy=0;fontFamily=Tahoma;fontSize=14;" parent="1" edge="1">
          <mxGeometry relative="1" as="geometry">
            <mxPoint x="541" y="450" as="sourcePoint" />
            <mxPoint x="541" y="450" as="targetPoint" />
          </mxGeometry>
        </mxCell>
        <mxCell id="nRz9gA-D5gIzsTfMlu9z-48" style="edgeStyle=orthogonalEdgeStyle;rounded=0;orthogonalLoop=1;jettySize=auto;html=1;exitX=0.5;exitY=1;exitDx=0;exitDy=0;fontFamily=Tahoma;fontSize=14;" parent="1" edge="1">
          <mxGeometry relative="1" as="geometry">
            <mxPoint x="541" y="450" as="sourcePoint" />
            <mxPoint x="541" y="450" as="targetPoint" />
          </mxGeometry>
        </mxCell>
        <mxCell id="nRz9gA-D5gIzsTfMlu9z-101" value="An Entity Relationship Diagram (ERD)" style="text;html=1;align=center;verticalAlign=middle;resizable=0;points=[];autosize=1;fontSize=22;fontFamily=Tahoma;fontStyle=4;fillColor=#dae8fc;strokeColor=#6c8ebf;" parent="1" vertex="1">
          <mxGeometry x="235" y="93" width="380" height="30" as="geometry" />
        </mxCell>
        <mxCell id="DeQpCL5bu_igMpKrfEsT-1" value="" style="rounded=0;whiteSpace=wrap;html=1;verticalAlign=bottom;" vertex="1" parent="1">
          <mxGeometry x="80" y="350" width="200" height="30" as="geometry" />
        </mxCell>
        <mxCell id="DeQpCL5bu_igMpKrfEsT-2" value="rubbish_id" style="text;html=1;strokeColor=none;fillColor=none;align=left;verticalAlign=middle;whiteSpace=wrap;rounded=0;fontFamily=Tahoma;fontSize=14;fontStyle=0" vertex="1" parent="1">
          <mxGeometry x="105" y="353" width="130" height="20" as="geometry" />
        </mxCell>
        <mxCell id="DeQpCL5bu_igMpKrfEsT-3" value="" style="rounded=0;whiteSpace=wrap;html=1;verticalAlign=bottom;" vertex="1" parent="1">
          <mxGeometry x="80" y="380" width="200" height="30" as="geometry" />
        </mxCell>
        <mxCell id="DeQpCL5bu_igMpKrfEsT-4" value="date_of_birth" style="text;html=1;strokeColor=none;fillColor=none;align=left;verticalAlign=middle;whiteSpace=wrap;rounded=0;fontFamily=Tahoma;fontSize=14;fontStyle=0" vertex="1" parent="1">
          <mxGeometry x="105" y="383" width="130" height="20" as="geometry" />
        </mxCell>
        <mxCell id="DeQpCL5bu_igMpKrfEsT-6" value="name" style="text;html=1;strokeColor=none;fillColor=none;align=left;verticalAlign=middle;whiteSpace=wrap;rounded=0;fontFamily=Tahoma;fontSize=14;fontStyle=0" vertex="1" parent="1">
          <mxGeometry x="465" y="426" width="110" height="20" as="geometry" />
        </mxCell>
        <mxCell id="DeQpCL5bu_igMpKrfEsT-7" value="" style="rounded=0;whiteSpace=wrap;html=1;verticalAlign=middle;" vertex="1" parent="1">
          <mxGeometry x="441" y="450" width="200" height="30" as="geometry" />
        </mxCell>
        <mxCell id="DeQpCL5bu_igMpKrfEsT-11" value="" style="endArrow=none;html=1;exitX=1;exitY=0.333;exitDx=0;exitDy=0;exitPerimeter=0;" edge="1" parent="1">
          <mxGeometry width="50" height="50" relative="1" as="geometry">
            <mxPoint x="280" y="332.99" as="sourcePoint" />
            <mxPoint x="440" y="250" as="targetPoint" />
            <Array as="points">
              <mxPoint x="360" y="333" />
              <mxPoint x="360" y="250" />
            </Array>
          </mxGeometry>
        </mxCell>
        <mxCell id="DeQpCL5bu_igMpKrfEsT-12" value="" style="endArrow=none;html=1;exitX=1;exitY=0.5;exitDx=0;exitDy=0;entryX=0;entryY=0.75;entryDx=0;entryDy=0;" edge="1" parent="1" source="DeQpCL5bu_igMpKrfEsT-1" target="nRz9gA-D5gIzsTfMlu9z-43">
          <mxGeometry width="50" height="50" relative="1" as="geometry">
            <mxPoint x="280" y="361" as="sourcePoint" />
            <mxPoint x="360" y="411" as="targetPoint" />
            <Array as="points">
              <mxPoint x="360" y="365" />
              <mxPoint x="360" y="415" />
            </Array>
          </mxGeometry>
        </mxCell>
      </root>
    </mxGraphModel>
  </diagram>
</mxfile>
